# xmcd
# 
# Track frame offsets:
#     150
#     21352
#     40502
#     63217
#     95120
#     116200
#     137757
#     158902
#     182300
#     202130
#     221342
#     241660
#     264902
#     286907
# 
# Disc length: 4070
# 
# Revision: 3
# Processed by: cddbd v1.5.2PL0 Copyright (c) Steve Scherf et al.
# Submitted via: fre:ac v1.0.17
# 
DISCID=c10fe40e
DTITLE=shela - FLORAL single collection vol.2
DYEAR=2005
DGENRE=J-Pop
TTITLE0=I believe in love
TTITLE1=Rose
TTITLE2=Dear my friends
TTITLE3=in my pocket (GROOVE THAT SOUL MIX)
TTITLE4=into the light
TTITLE5=星が見える場所
TTITLE6=OVER THERE
TTITLE7=Baby's breath
TTITLE8=Days
TTITLE9=Precious Moment
TTITLE10=Bithrday Song - sunny-side up
TTITLE11=月と太陽
TTITLE12=treasure
TTITLE13=枯れない花
EXTD=YEAR: 2005
EXTT0=
EXTT1=
EXTT2=
EXTT3=
EXTT4=
EXTT5=
EXTT6=
EXTT7=
EXTT8=
EXTT9=
EXTT10=
EXTT11=
EXTT12=
EXTT13=
PLAYORDER=
